<?xml version="1.0" encoding="UTF-8"?>
<svg id="Layer_2" data-name="Layer 2" xmlns="http://www.w3.org/2000/svg" viewBox="0 0 224.96 35">
  <defs>
    <style>
      .cls-1 {
        fill: #0251d5;
      }

      .cls-2 {
        fill: #15265c;
      }
    </style>
  </defs>
  <g id="Layer_1-2" data-name="Layer 1">
    <g>
      <g>
        <path class="cls-2" d="m28.77,21.59v.28c0,1.42,1.23,2.47,2.88,2.47s2.78-.98,2.78-2.25c0-.66-.32-1.27-.85-1.68s-.92-.57-2.56-1.17c-4.62-1.65-6.26-3.38-6.26-6.61,0-3.83,2.81-6.39,6.96-6.39s6.77,2.4,7.12,6.45h-4.37c-.16-1.77-1.04-2.63-2.75-2.63-1.55,0-2.59.89-2.59,2.21,0,.85.44,1.52,1.3,1.99.57.32.92.47,2.47,1.04,2.31.85,3.48,1.46,4.4,2.34,1.11,1.04,1.68,2.47,1.68,4.08,0,3.86-2.91,6.42-7.28,6.42s-7.15-2.53-7.12-6.58h4.21Z"/>
        <path class="cls-2" d="m46.07,13.11v1.83c.92-1.61,2.15-2.34,4.02-2.34s3.29.85,3.99,2.44c.98-1.68,2.34-2.44,4.43-2.44,1.49,0,2.72.47,3.54,1.36.89.98,1.17,1.99,1.17,4.21v9.58h-4.02v-8.83c0-1.99-.73-2.94-2.25-2.94s-2.34,1.08-2.34,2.94v8.83h-4.02v-8.7c0-2.02-.76-3.07-2.21-3.07s-2.31,1.04-2.31,3.07v8.7h-4.02v-14.65h4.02Z"/>
        <path class="cls-2" d="m78.34,13.11h4.02v14.65h-4.02v-2.02c-1.36,1.74-2.94,2.53-5.09,2.53-4.11,0-7.05-3.19-7.05-7.65s3.1-8,7.37-8c1.99,0,3.35.7,4.78,2.37v-1.87Zm-7.84,7.43c0,2.56,1.68,4.49,3.86,4.49s4.05-2.09,4.05-4.62-1.65-4.43-4.02-4.43-3.89,1.87-3.89,4.56Z"/>
        <path class="cls-2" d="m90.32,13.11v2.15c.41-1.08.7-1.52,1.3-1.96.63-.44,1.49-.7,2.37-.7.09,0,.25,0,.47.03v4.11c-.32-.03-.63-.06-.85-.06-1.11,0-2.12.51-2.69,1.33-.47.66-.6,1.3-.6,2.69v7.05h-4.02v-14.65h4.02Z"/>
        <path class="cls-2" d="m101.58,23.45c0,.7.25.89,1.14.95h.7v3.35h-3.19c-1.96-.06-2.69-.85-2.66-2.78v-8.54h-1.68v-3.38h1.68v-3.92h4.02v3.92h1.83v3.38h-1.83v7.02Z"/>
        <path class="cls-2" d="m122.84,6.66c2.59,0,4.27.38,5.38,1.2,1.3.98,2.02,2.59,2.02,4.46,0,1.46-.44,2.66-1.33,3.61-.6.6-1.08.89-2.21,1.27,1.27.28,1.83.54,2.5,1.14.98.89,1.52,2.18,1.52,3.8,0,1.96-.82,3.7-2.18,4.62-1.11.73-2.4,1.01-4.71,1.01h-7.78V6.66h6.8Zm-2.47,8.95h1.74c2.56,0,3.76-.92,3.76-2.88,0-1.08-.51-1.99-1.27-2.37-.6-.28-1.49-.41-2.72-.41h-1.52v5.66Zm0,8.95h2.12c1.49,0,2.18-.13,2.82-.57.7-.47,1.04-1.23,1.04-2.25,0-1.14-.41-1.93-1.2-2.4-.66-.38-1.33-.51-2.91-.51h-1.87v5.73Z"/>
        <path class="cls-2" d="m146.46,13.11v9.27c0,2.15-.44,3.35-1.64,4.37-1.17.98-2.82,1.52-4.74,1.52-2.02,0-3.76-.57-4.9-1.61-1.04-.95-1.55-2.34-1.55-4.27v-9.27h4.02v9.02c0,1.65.98,2.75,2.44,2.75s2.37-.95,2.37-2.5v-9.27h4.02Z"/>
        <path class="cls-2" d="m154.4,8.97c0,1.23-.95,2.18-2.21,2.18s-2.25-.95-2.25-2.21.95-2.25,2.25-2.25,2.21.95,2.21,2.28Zm-.22,18.79h-4.02v-14.65h4.02v14.65Z"/>
        <path class="cls-2" d="m158.16,27.75V6.66h4.02v21.1h-4.02Z"/>
        <path class="cls-2" d="m177.39,6.66h4.02v21.1h-4.02v-1.93c-1.27,1.74-2.66,2.44-4.9,2.44-4.33,0-7.24-3.1-7.24-7.69,0-2.47.82-4.52,2.34-5.95,1.39-1.3,3.16-2.02,4.97-2.02,1.99,0,3.42.63,4.84,2.12V6.66Zm-7.88,13.95c0,2.53,1.68,4.43,3.95,4.43s3.92-1.93,3.92-4.46c0-2.66-1.65-4.59-3.89-4.59s-3.99,1.93-3.99,4.62Z"/>
        <path class="cls-2" d="m189.6,8.97c0,1.23-.95,2.18-2.21,2.18s-2.25-.95-2.25-2.21.95-2.25,2.25-2.25,2.21.95,2.21,2.28Zm-.22,18.79h-4.02v-14.65h4.02v14.65Z"/>
        <path class="cls-2" d="m197.38,13.11v1.8c1.08-1.68,2.15-2.31,3.99-2.31,1.39,0,2.72.51,3.61,1.36.95.95,1.3,2.12,1.3,4.52v9.27h-4.02v-9.08c0-.82-.1-1.3-.35-1.71-.38-.6-1.14-.98-1.93-.98-1.55,0-2.59,1.17-2.59,2.88v8.89h-4.02v-14.65h4.02Z"/>
        <path class="cls-2" d="m221.01,13.11h3.95v13.57c0,3.01-.57,4.75-1.96,6.1-1.42,1.42-3.57,2.21-6.07,2.21-2.85,0-5.19-.95-7.18-2.91l2.5-2.53c1.3,1.39,2.69,2.02,4.52,2.02,2.69,0,4.24-1.58,4.24-4.33v-1.49c-1.33,1.68-3.04,2.5-5.16,2.5-4.02,0-6.93-3.26-6.93-7.72,0-4.74,2.94-7.94,7.34-7.94,2.06,0,3.48.7,4.74,2.31v-1.8Zm-7.81,7.24c0,2.53,1.65,4.33,3.95,4.33,1.17,0,2.31-.51,3.04-1.36.47-.57.76-1.49.76-2.59,0-1.58-.35-2.66-1.08-3.42-.73-.7-1.74-1.14-2.75-1.14-2.31,0-3.92,1.74-3.92,4.18Z"/>
      </g>
      <g>
        <polygon class="cls-2" points="18.26 9.12 9.13 9.12 4.55 0 13.68 0 18.26 9.12"/>
        <polygon class="cls-1" points="0 13.09 9.12 13.09 13.7 3.96 4.58 3.96 0 13.09"/>
      </g>
    </g>
  </g>
</svg>